<svg width="56" height="57" viewBox="0 0 56 57" fill="none" xmlns="http://www.w3.org/2000/svg">
<path d="M14 42.4272H42C43.5908 42.4255 45.1159 41.7928 46.2407 40.668C47.3656 39.5431 47.9983 38.018 48 36.4272V20.4272C47.9983 18.8365 47.3656 17.3114 46.2407 16.1865C45.1159 15.0617 43.5908 14.429 42 14.4272H14C12.4092 14.429 10.8841 15.0617 9.75929 16.1865C8.63445 17.3114 8.00175 18.8365 8 20.4272V36.4272C8.00175 38.018 8.63445 39.5431 9.75929 40.668C10.8841 41.7928 12.4092 42.4255 14 42.4272ZM12 36.4272V34.4272C13.0605 34.4285 14.0772 34.8503 14.8271 35.6002C15.577 36.35 15.9988 37.3668 16 38.4272H14C13.4697 38.4268 12.9613 38.2159 12.5863 37.8409C12.2113 37.466 12.0005 36.9575 12 36.4272ZM44 36.4272C43.9995 36.9575 43.7887 37.466 43.4137 37.8409C43.0387 38.2159 42.5303 38.4268 42 38.4272H40C40.0012 37.3668 40.423 36.35 41.1729 35.6002C41.9228 34.8503 42.9395 34.4285 44 34.4272V36.4272ZM44 20.4272V22.4272C42.9395 22.426 41.9228 22.0042 41.1729 21.2543C40.423 20.5044 40.0012 19.4877 40 18.4272H42C42.5303 18.4277 43.0387 18.6386 43.4137 19.0136C43.7887 19.3885 43.9995 19.897 44 20.4272ZM36 18.4272C36.0022 20.5483 36.8458 22.5818 38.3456 24.0816C39.8454 25.5815 41.879 26.425 44 26.4272V30.4272C41.879 30.4295 39.8454 31.273 38.3456 32.7728C36.8458 34.2727 36.0022 36.3062 36 38.4272H20C19.9978 36.3062 19.1542 34.2727 17.6544 32.7728C16.1546 31.273 14.121 30.4295 12 30.4272V26.4272C14.121 26.425 16.1546 25.5815 17.6544 24.0816C19.1542 22.5818 19.9978 20.5483 20 18.4272H36ZM12 20.4272C12.0005 19.897 12.2113 19.3885 12.5863 19.0136C12.9613 18.6386 13.4697 18.4277 14 18.4272H16C15.9988 19.4877 15.577 20.5044 14.8271 21.2543C14.0772 22.0042 13.0605 22.426 12 22.4272V20.4272Z" fill="#A78364"/>
<path d="M28 34.4272C29.1867 34.4272 30.3467 34.0754 31.3334 33.4161C32.3201 32.7568 33.0892 31.8197 33.5433 30.7233C33.9974 29.627 34.1162 28.4206 33.8847 27.2567C33.6532 26.0928 33.0818 25.0237 32.2426 24.1846C31.4035 23.3455 30.3344 22.774 29.1705 22.5425C28.0067 22.311 26.8003 22.4298 25.7039 22.884C24.6075 23.3381 23.6705 24.1071 23.0112 25.0938C22.3519 26.0805 22 27.2406 22 28.4272C22.0017 30.018 22.6344 31.5431 23.7593 32.668C24.8841 33.7928 26.4092 34.4255 28 34.4272ZM28 26.4272C28.3956 26.4272 28.7822 26.5445 29.1111 26.7643C29.44 26.9841 29.6964 27.2964 29.8478 27.6619C29.9991 28.0273 30.0387 28.4295 29.9616 28.8174C29.8844 29.2054 29.6939 29.5618 29.4142 29.8415C29.1345 30.1212 28.7781 30.3116 28.3902 30.3888C28.0022 30.466 27.6001 30.4264 27.2346 30.275C26.8692 30.1236 26.5568 29.8673 26.3371 29.5384C26.1173 29.2095 26 28.8228 26 28.4272C26.0005 27.897 26.2113 27.3885 26.5863 27.0136C26.9613 26.6386 27.4697 26.4277 28 26.4272Z" fill="#A78364"/>
<path d="M28 0.427249C20.5765 0.435613 13.4595 3.38829 8.21025 8.6375C2.96104 13.8867 0.00836379 21.0038 0 28.4272C0 28.9577 0.210714 29.4664 0.585786 29.8415C0.960859 30.2165 1.46957 30.4272 2 30.4272C2.53043 30.4272 3.03914 30.2165 3.41421 29.8415C3.78929 29.4664 4 28.9577 4 28.4272C3.99203 23.0712 5.77327 17.8659 9.06099 13.6376C12.3487 9.40933 16.9545 6.40031 22.1474 5.08815C27.3402 3.77599 32.8226 4.23589 37.7242 6.39484C42.6259 8.55379 46.6661 12.2881 49.2034 17.005C51.7407 21.722 52.6299 27.1512 51.7297 32.4311C50.8295 37.711 48.1916 42.539 44.2346 46.1487C40.2777 49.7584 35.2284 51.943 29.8883 52.3558C24.5481 52.7686 19.2231 51.3859 14.7584 48.4272H18C18.5304 48.4272 19.0391 48.2165 19.4142 47.8415C19.7893 47.4664 20 46.9577 20 46.4272C20 45.8968 19.7893 45.3881 19.4142 45.013C19.0391 44.638 18.5304 44.4272 18 44.4272H10C9.46957 44.4272 8.96086 44.638 8.58579 45.013C8.21071 45.3881 8 45.8968 8 46.4272V54.4272C8 54.9577 8.21071 55.4664 8.58579 55.8415C8.96086 56.2165 9.46957 56.4272 10 56.4272C10.5304 56.4272 11.0391 56.2165 11.4142 55.8415C11.7893 55.4664 12 54.9577 12 54.4272V51.3672C15.6041 53.8814 19.7496 55.5116 24.1008 56.1258C28.4521 56.7399 32.8868 56.3208 37.046 54.9024C41.2051 53.4839 44.9718 51.106 48.0411 47.9611C51.1103 44.8162 53.3959 40.9928 54.7127 36.8003C56.0295 32.6079 56.3406 28.1643 55.6208 23.8293C54.9009 19.4942 53.1703 15.3897 50.5692 11.8478C47.968 8.30598 44.5694 5.42645 40.6484 3.44234C36.7275 1.45824 32.3944 0.425331 28 0.427249Z" fill="#A78364"/>
</svg>
