<svg width="57" height="49" viewBox="0 0 57 49" fill="none" xmlns="http://www.w3.org/2000/svg">
<path d="M53.6663 24.7607V8.76074C53.6663 4.22741 50.1997 0.760742 45.6663 0.760742H8.33301C4.06634 0.760742 0.333008 4.22741 0.333008 8.76074V30.0941C0.333008 34.3607 4.06634 38.0941 8.33301 38.0941H33.133C33.6663 39.4274 34.1997 40.7607 34.9997 42.0941C36.0663 43.6941 37.133 45.0274 38.4663 46.0941L39.7997 47.1607C41.133 48.2274 42.733 48.7607 44.333 48.7607C45.933 48.7607 47.533 48.2274 48.8663 47.1607L50.1997 46.0941C54.1997 42.8941 56.333 38.0941 56.333 33.2941V29.2941C56.333 27.4274 55.2663 25.8274 53.6663 24.7607ZM5.66634 8.76074C5.66634 7.42741 6.99967 6.09408 8.33301 6.09408H45.6663C46.9997 6.09408 48.333 7.42741 48.333 8.76074V11.4274H5.66634V8.76074ZM32.333 29.5607V32.7607H8.33301C6.99967 32.7607 5.66634 31.4274 5.66634 30.0941V16.7607H48.333V22.8941L45.6663 22.0941C44.8663 21.8274 44.0663 21.8274 43.533 22.0941L36.8663 23.9607C33.933 24.7607 32.333 26.8941 32.333 29.5607ZM50.9997 33.2941C50.9997 36.7607 49.3997 39.9607 46.733 42.0941L45.3997 43.1607C44.8663 43.6941 43.7997 43.6941 43.2663 43.1607L41.933 42.0941C41.133 41.2941 40.0663 40.4941 39.533 39.4274C38.733 38.0941 38.1997 36.7607 37.933 35.1607C37.933 34.6274 37.933 34.0941 37.933 33.5607V29.5607C37.933 29.5607 37.933 29.2941 38.1997 29.2941L44.5997 27.4274L50.4663 29.0274H50.733C50.9997 29.0274 50.9997 29.2941 50.9997 29.2941V33.2941Z" fill="#A78364"/>
</svg>
