<svg width="80" height="25" viewBox="0 0 80 25" fill="none" xmlns="http://www.w3.org/2000/svg">
<path d="M29.1533 23.4718L33.1917 0.756104H39.5016L35.5894 23.4718H29.1533Z" fill="#3C58BF"/>
<path d="M29.1533 23.4718L34.3275 0.756104H39.5016L35.5894 23.4718H29.1533Z" fill="#293688"/>
<path d="M58.4304 1.00959C57.1684 0.504793 55.1493 0 52.6253 0C46.3154 0 41.7722 3.15496 41.7722 7.6981C41.7722 11.1055 44.9272 12.8722 47.4512 14.008C49.9751 15.1438 50.7323 15.901 50.7323 16.9106C50.7323 18.425 48.7131 19.1822 46.9464 19.1822C44.4224 19.1822 43.0342 18.8036 40.8888 17.9202L40.0055 17.5416L39.1221 22.7157C40.6365 23.3467 43.4128 23.9777 46.3154 23.9777C53.0039 23.9777 57.4208 20.8227 57.4208 16.0272C57.4208 13.377 55.7803 11.3579 51.9943 9.71727C49.7227 8.58149 48.3346 7.9505 48.3346 6.81471C48.3346 5.80513 49.4703 4.79554 51.9943 4.79554C54.1397 4.79554 55.6541 5.17413 56.7898 5.67893L57.4208 5.93132L58.4304 1.00959Z" fill="#3C58BF"/>
<path d="M58.4304 1.00959C57.1684 0.504793 55.1493 0 52.6253 0C46.3154 0 42.908 3.15496 42.908 7.6981C42.908 11.1055 44.9272 12.8722 47.4512 14.008C49.9751 15.1438 50.7323 15.901 50.7323 16.9106C50.7323 18.425 48.7131 19.1822 46.9464 19.1822C44.4224 19.1822 43.0342 18.8036 40.8888 17.9202L40.0055 17.5416L39.1221 22.7157C40.6365 23.3467 43.4128 23.9777 46.3154 23.9777C53.0039 23.9777 57.4208 20.8227 57.4208 16.0272C57.4208 13.377 55.7803 11.3579 51.9943 9.71727C49.7227 8.58149 48.3346 7.9505 48.3346 6.81471C48.3346 5.80513 49.4703 4.79554 51.9943 4.79554C54.1397 4.79554 55.6541 5.17413 56.7898 5.67893L57.4208 5.93132L58.4304 1.00959Z" fill="#293688"/>
<path d="M69.2822 0.756104C67.7678 0.756104 66.632 0.882303 66.001 2.39668L56.5361 23.4718H63.3508L64.6128 19.6859H72.6895L73.4467 23.4718H79.5042L74.2039 0.756104H69.2822ZM66.3796 15.8999C66.7582 14.7641 68.9036 9.2114 68.9036 9.2114C68.9036 9.2114 69.4084 7.82321 69.787 6.93983L70.1656 9.0852C70.1656 9.0852 71.4275 14.7641 71.6799 16.0261H66.3796V15.8999Z" fill="#3C58BF"/>
<path d="M70.7966 0.756104C69.2822 0.756104 68.1464 0.882303 67.5154 2.39668L56.5361 23.4718H63.3508L64.6128 19.6859H72.6895L73.4467 23.4718H79.5042L74.2039 0.756104H70.7966ZM66.3796 15.8999C66.8844 14.6379 68.9036 9.2114 68.9036 9.2114C68.9036 9.2114 69.4084 7.82321 69.787 6.93983L70.1656 9.0852C70.1656 9.0852 71.4275 14.7641 71.6799 16.0261H66.3796V15.8999Z" fill="#293688"/>
<path d="M17.5401 16.6576L16.9091 13.3765C15.7733 9.5905 12.1135 5.42595 8.0752 3.40678L13.7541 23.5985H20.5688L30.7909 0.882812H23.9762L17.5401 16.6576Z" fill="#3C58BF"/>
<path d="M17.5401 16.6576L16.9091 13.3765C15.7733 9.5905 12.1135 5.42595 8.0752 3.40678L13.7541 23.5985H20.5688L30.7909 0.882812H25.2382L17.5401 16.6576Z" fill="#293688"/>
<path d="M0 0.756104L1.13579 1.0085C9.21248 2.90148 14.7652 7.69701 16.9106 13.3759L14.639 2.64908C14.2604 1.1347 13.1246 0.756104 11.7364 0.756104H0Z" fill="#FFBC00"/>
<path d="M0 0.756104C8.0767 2.64908 14.7652 7.57082 16.9106 13.2497L14.7652 4.28966C14.3866 2.77528 13.1246 1.89189 11.7364 1.89189L0 0.756104Z" fill="#F7981D"/>
<path d="M0 0.756104C8.0767 2.64908 14.7652 7.57082 16.9106 13.2497L15.3962 8.32801C15.0176 6.81363 14.5128 5.29925 12.746 4.66825L0 0.756104Z" fill="#ED7C00"/>
<path d="M23.8537 15.9021L19.5629 11.6113L17.5438 16.4069L17.039 13.2519C15.9032 9.46595 12.2434 5.3014 8.20508 3.28223L13.884 23.474H20.6987L23.8537 15.9021Z" fill="#051244"/>
<path d="M35.5894 23.4736L30.1629 17.9209L29.1533 23.4736H35.5894Z" fill="#051244"/>
<path d="M50.1023 15.6509C50.6071 16.1557 50.8595 16.5343 50.7333 17.0391C50.7333 18.5534 48.7141 19.3106 46.9473 19.3106C44.4234 19.3106 43.0352 18.932 40.8898 18.0487L40.0064 17.6701L39.123 22.8442C40.6374 23.4752 43.4138 24.1062 46.3164 24.1062C50.3547 24.1062 53.6359 22.9704 55.5288 20.9512L50.1023 15.6509Z" fill="#051244"/>
<path d="M57.4219 23.4717H63.3532L64.6152 19.6857H72.6919L73.4491 23.4717H79.5066L77.3612 14.2592L69.7893 6.9397L70.1679 8.95887C70.1679 8.95887 71.4299 14.6378 71.6823 15.8998H66.382C66.8868 14.6378 68.9059 9.21127 68.9059 9.21127C68.9059 9.21127 69.4107 7.82309 69.7893 6.9397" fill="#051244"/>
</svg>
