<svg width="64" height="65" viewBox="0 0 64 65" fill="none" xmlns="http://www.w3.org/2000/svg">
<path d="M36.3746 22.865C36.3746 23.8025 36.3746 24.74 36.3746 25.6775C36.3746 27.9275 36.3746 30.1775 36.3746 32.4337C36.3746 35.1462 36.3746 37.8587 36.3746 40.5712C36.3746 42.9212 36.3746 45.2775 36.3746 47.6275C36.3746 48.765 36.3496 49.9087 36.3746 51.0462C36.3746 51.065 36.3746 51.0775 36.3746 51.0962C37.2059 50.265 38.0434 49.4275 38.8746 48.5962C36.7746 48.5962 34.6746 48.5962 32.5746 48.5962C29.2184 48.5962 25.8559 48.5962 22.4996 48.5962C21.7309 48.5962 20.9621 48.5962 20.1996 48.5962C21.0309 49.4275 21.8684 50.265 22.6996 51.0962C22.6871 49.6275 22.2684 48.0775 21.4059 46.8775C20.8434 46.0962 20.2809 45.5275 19.5184 44.9525C18.9246 44.5025 18.2559 44.1962 17.5559 43.94C14.7871 42.915 11.3434 43.8587 9.44961 46.115C8.26211 47.5337 7.58086 49.2337 7.56211 51.1025C8.39336 50.2712 9.23086 49.4337 10.0621 48.6025C9.29336 48.6025 8.53086 48.6025 7.76211 48.6025C6.98086 48.6025 6.16836 48.6712 5.38711 48.5837C5.60586 48.615 5.83086 48.6462 6.04961 48.6712C5.88086 48.6462 5.71836 48.6025 5.56211 48.5462C5.76211 48.6275 5.96211 48.715 6.16211 48.7962C5.98086 48.7212 5.81836 48.6275 5.66211 48.5087C5.83086 48.64 5.99961 48.7712 6.16836 48.9025C6.03711 48.7962 5.92461 48.6837 5.82461 48.5587C5.95586 48.7275 6.08711 48.8962 6.21836 49.065C6.09961 48.9087 6.00586 48.7462 5.93086 48.565C6.01211 48.765 6.09961 48.965 6.18086 49.165C6.11836 49.0025 6.08086 48.8462 6.05586 48.6775C6.08711 48.8962 6.11836 49.1212 6.14336 49.34C6.11211 49.04 6.12461 48.7337 6.12461 48.4337C6.12461 47.8087 6.12461 47.1775 6.12461 46.5525C6.12461 44.4525 6.12461 42.3462 6.12461 40.2462C6.12461 37.7025 6.12461 35.1587 6.12461 32.615C6.12461 30.4212 6.12461 28.2275 6.12461 26.0337C6.12461 24.99 6.11211 23.9462 6.12461 22.9087C6.12461 22.8087 6.13086 22.715 6.14336 22.615C6.11211 22.8337 6.08086 23.0587 6.05586 23.2775C6.08086 23.1087 6.12461 22.9462 6.18086 22.79C6.09961 22.99 6.01211 23.19 5.93086 23.39C6.00586 23.2087 6.09961 23.0462 6.21836 22.89C6.08711 23.0587 5.95586 23.2275 5.82461 23.3962C5.93086 23.265 6.04336 23.1525 6.16836 23.0525C5.99961 23.1837 5.83086 23.315 5.66211 23.4462C5.81836 23.3275 5.98086 23.2337 6.16211 23.1587C5.96211 23.24 5.76211 23.3275 5.56211 23.4087C5.72461 23.3462 5.88086 23.3087 6.04961 23.2837C5.83086 23.315 5.60586 23.3462 5.38711 23.3712C5.99961 23.3025 6.64336 23.3525 7.26211 23.3525C7.86211 23.3525 8.46211 23.3525 9.06212 23.3525C8.23086 22.5212 7.39336 21.6837 6.56211 20.8525C6.56211 23.7775 7.43711 26.7775 9.13087 29.1712C9.96837 30.3525 10.9184 31.4275 12.0621 32.3212C12.7059 32.8212 13.3559 33.3025 14.0746 33.7025C14.7934 34.1025 15.5559 34.4275 16.3246 34.715C21.9246 36.8025 28.7184 34.965 32.4809 30.3275C33.6371 28.9025 34.5184 27.39 35.1371 25.6525C35.6809 24.1275 35.9371 22.465 35.9371 20.8462C35.1059 21.6775 34.2684 22.515 33.4371 23.3462C34.0371 23.3462 34.6371 23.3462 35.2371 23.3462C35.8559 23.3462 36.4934 23.2962 37.1121 23.365C36.8934 23.3337 36.6684 23.3025 36.4496 23.2775C36.6184 23.3025 36.7809 23.3462 36.9371 23.4025C36.7371 23.3212 36.5371 23.2337 36.3371 23.1525C36.5184 23.2275 36.6809 23.3212 36.8371 23.44C36.6684 23.3087 36.4996 23.1775 36.3309 23.0462C36.4621 23.1525 36.5746 23.265 36.6746 23.39C36.5434 23.2212 36.4121 23.0525 36.2809 22.8837C36.3996 23.04 36.4934 23.2025 36.5684 23.3837C36.4871 23.1837 36.3996 22.9837 36.3184 22.7837C36.3809 22.9462 36.4184 23.1025 36.4434 23.2712C36.4121 23.0525 36.3809 22.8275 36.3559 22.6087C36.3684 22.69 36.3746 22.7775 36.3746 22.865C36.3871 23.515 36.6434 24.1712 37.1059 24.6337C37.5371 25.065 38.2496 25.3962 38.8746 25.365C40.2059 25.3025 41.4059 24.265 41.3746 22.865C41.3371 21.2337 40.4496 19.5775 38.9371 18.8587C38.2496 18.5337 37.6059 18.3525 36.8371 18.34C36.6871 18.34 36.5371 18.34 36.3871 18.34C35.4059 18.34 34.4246 18.34 33.4371 18.34C32.0871 18.34 30.9371 19.4837 30.9371 20.84C30.9371 21.4025 30.8996 21.965 30.8246 22.5212C30.8559 22.3025 30.8871 22.0775 30.9121 21.8587C30.7684 22.915 30.4871 23.9525 30.0746 24.9337C30.1559 24.7337 30.2434 24.5337 30.3246 24.3337C29.9184 25.2962 29.3871 26.1962 28.7559 27.0275C28.8871 26.8587 29.0184 26.69 29.1496 26.5212C28.4996 27.365 27.7434 28.115 26.8996 28.7712C27.0684 28.64 27.2371 28.5087 27.4059 28.3775C26.5746 29.0087 25.6746 29.54 24.7121 29.9462C24.9121 29.865 25.1121 29.7775 25.3121 29.6962C24.3246 30.1087 23.2934 30.39 22.2371 30.5337C22.4559 30.5025 22.6809 30.4712 22.8996 30.4462C21.8059 30.59 20.6996 30.59 19.6059 30.4462C19.8246 30.4775 20.0496 30.5087 20.2684 30.5337C19.2121 30.39 18.1746 30.1087 17.1934 29.6962C17.3934 29.7775 17.5934 29.865 17.7934 29.9462C16.8309 29.54 15.9309 29.0087 15.0996 28.3775C15.2684 28.5087 15.4371 28.64 15.6059 28.7712C14.7621 28.1212 14.0121 27.365 13.3559 26.5212C13.4871 26.69 13.6184 26.8587 13.7496 27.0275C13.1184 26.1962 12.5871 25.2962 12.1809 24.3337C12.2621 24.5337 12.3496 24.7337 12.4309 24.9337C12.0184 23.9462 11.7371 22.915 11.5934 21.8587C11.6246 22.0775 11.6559 22.3025 11.6809 22.5212C11.6059 21.965 11.5684 21.4025 11.5684 20.84C11.5684 19.49 10.4246 18.34 9.06837 18.34C8.41837 18.34 7.76836 18.34 7.11211 18.34C6.24336 18.34 5.32461 18.2712 4.48086 18.4962C2.49961 19.015 1.16836 20.8587 1.13086 22.8775C1.13086 23.0337 1.13086 23.1962 1.13086 23.3525C1.13086 25.7962 1.13086 28.2337 1.13086 30.6775C1.13086 34.265 1.13086 37.8462 1.13086 41.4337C1.13086 43.8337 1.13086 46.2337 1.13086 48.6337C1.13086 48.7775 1.13086 48.9275 1.13086 49.0712C1.16836 51.1337 2.63086 53.14 4.73086 53.4962C5.51211 53.6275 6.27461 53.6025 7.06836 53.6025C7.90586 53.6025 8.74336 53.6025 9.57461 53.6025C9.73711 53.6025 9.89962 53.6025 10.0684 53.6025C11.4309 53.6025 12.5559 52.4587 12.5684 51.1025C12.5684 50.8712 12.5871 50.64 12.6184 50.4087C12.5871 50.6275 12.5559 50.8525 12.5309 51.0712C12.5934 50.6212 12.7184 50.19 12.8871 49.7775C12.8059 49.9775 12.7184 50.1775 12.6371 50.3775C12.8121 49.9712 13.0371 49.5962 13.3059 49.2462C13.1746 49.415 13.0434 49.5837 12.9121 49.7525C13.1684 49.4275 13.4559 49.14 13.7809 48.8837C13.6121 49.015 13.4434 49.1462 13.2746 49.2775C13.6246 49.0087 13.9996 48.7837 14.4059 48.6087C14.2059 48.69 14.0059 48.7775 13.8059 48.8587C14.2246 48.6837 14.6559 48.565 15.0996 48.5025C14.8809 48.5337 14.6559 48.565 14.4371 48.59C14.8996 48.5275 15.3621 48.5275 15.8246 48.59C15.6059 48.5587 15.3809 48.5275 15.1621 48.5025C15.6121 48.565 16.0434 48.69 16.4559 48.8587C16.2559 48.7775 16.0559 48.69 15.8559 48.6087C16.2621 48.7837 16.6371 49.0087 16.9871 49.2775C16.8184 49.1462 16.6496 49.015 16.4809 48.8837C16.8059 49.14 17.0934 49.4275 17.3496 49.7525C17.2184 49.5837 17.0871 49.415 16.9559 49.2462C17.2246 49.5962 17.4496 49.9712 17.6246 50.3775C17.5434 50.1775 17.4559 49.9775 17.3746 49.7775C17.5496 50.1962 17.6684 50.6275 17.7309 51.0712C17.6996 50.8525 17.6684 50.6275 17.6434 50.4087C17.6746 50.64 17.6871 50.8712 17.6934 51.1025C17.7059 52.4525 18.8309 53.6025 20.1934 53.6025C22.2934 53.6025 24.3934 53.6025 26.4934 53.6025C29.8496 53.6025 33.2121 53.6025 36.5684 53.6025C37.3371 53.6025 38.1059 53.6025 38.8684 53.6025C40.2184 53.6025 41.3684 52.4587 41.3684 51.1025C41.3684 50.165 41.3684 49.2275 41.3684 48.29C41.3684 46.04 41.3684 43.79 41.3684 41.5337C41.3684 38.8212 41.3684 36.1087 41.3684 33.3962C41.3684 31.0462 41.3684 28.69 41.3684 26.34C41.3684 25.2025 41.3871 24.0587 41.3684 22.9212C41.3684 22.9025 41.3684 22.89 41.3684 22.8712C41.3684 21.565 40.2184 20.3087 38.8684 20.3712C37.5184 20.4275 36.3746 21.465 36.3746 22.865Z" fill="#A78364"/>
<path d="M57.8688 40.8709C57.8688 43.3022 57.8688 45.7272 57.8688 48.1584C57.8688 48.5459 57.8937 48.9459 57.85 49.3397C57.8812 49.1209 57.9125 48.8959 57.9375 48.6772C57.9125 48.8459 57.8688 49.0084 57.8125 49.1647C57.8937 48.9647 57.9813 48.7647 58.0625 48.5647C57.9875 48.7459 57.8938 48.9084 57.775 49.0647C57.9062 48.8959 58.0375 48.7272 58.1688 48.5584C58.0625 48.6897 57.95 48.8022 57.825 48.9022C57.9938 48.7709 58.1625 48.6397 58.3312 48.5084C58.175 48.6272 58.0125 48.7209 57.8312 48.7959C58.0312 48.7147 58.2313 48.6272 58.4313 48.5459C58.2688 48.6084 58.1125 48.6459 57.9437 48.6709C58.1625 48.6397 58.3875 48.6084 58.6063 48.5834C57.9625 48.6522 57.2938 48.6022 56.6437 48.6022C56.0125 48.6022 55.3875 48.6022 54.7562 48.6022C55.5875 49.4334 56.425 50.2709 57.2562 51.1022C57.2437 49.6334 56.825 48.0834 55.9625 46.8834C55.4 46.1022 54.8375 45.5334 54.075 44.9584C53.4813 44.5084 52.8125 44.2022 52.1125 43.9459C49.3375 42.9209 45.9 43.8647 44.0062 46.1209C42.8187 47.5397 42.1375 49.2397 42.1188 51.1084C42.95 50.2772 43.7875 49.4397 44.6188 48.6084C42.9438 48.6084 41.275 48.6084 39.6 48.6084C39.3562 48.6084 39.1125 48.6084 38.8688 48.6084C39.7 49.4397 40.5375 50.2772 41.3688 51.1084C41.3688 50.3709 41.3688 49.6397 41.3688 48.9022C41.3688 47.1397 41.3688 45.3709 41.3688 43.6084C41.3688 41.4709 41.3688 39.3397 41.3688 37.2022C41.3688 35.3584 41.3688 33.5084 41.3688 31.6647C41.3688 30.7647 41.3875 29.8647 41.3688 28.9647C41.3688 28.9522 41.3688 28.9397 41.3688 28.9272C40.5375 29.7584 39.7 30.5959 38.8688 31.4272C40.1438 31.4272 41.4187 31.4272 42.6937 31.4272C44.6875 31.4272 46.6812 31.4272 48.675 31.4272C49.2062 31.4272 49.7625 31.3897 50.2875 31.4522C50.0687 31.4209 49.8438 31.3897 49.625 31.3647C49.85 31.4022 50.0562 31.4584 50.2687 31.5397C50.0687 31.4584 49.8688 31.3709 49.6688 31.2897C49.9062 31.3897 50.125 31.5147 50.325 31.6709C50.1562 31.5397 49.9875 31.4084 49.8187 31.2772C50.2312 31.6084 50.5562 32.0647 50.8937 32.4647C51.5 33.1897 52.1063 33.9147 52.7188 34.6397C54.1375 36.3334 55.5563 38.0334 56.9813 39.7272C57.325 40.1397 57.675 40.5459 58.0125 40.9584C57.8813 40.7897 57.75 40.6209 57.6188 40.4522C57.7625 40.6459 57.875 40.8397 57.975 41.0584C57.8937 40.8584 57.8062 40.6584 57.725 40.4584C57.8125 40.6772 57.875 40.8959 57.9125 41.1334C57.8812 40.9147 57.85 40.6897 57.825 40.4709C57.8563 40.6022 57.8688 40.7334 57.8688 40.8709C57.8813 41.5209 58.1375 42.1772 58.6 42.6397C59.0312 43.0709 59.7438 43.4022 60.3688 43.3709C61.7 43.3084 62.8938 42.2709 62.8688 40.8709C62.85 39.9709 62.6312 39.1459 62.2188 38.3459C62.025 37.9709 61.7437 37.6397 61.475 37.3147C61.3625 37.1834 61.2562 37.0522 61.1437 36.9209C60.6 36.2709 60.05 35.6147 59.5062 34.9647C58.0312 33.2022 56.55 31.4334 55.075 29.6709C54.6688 29.1834 54.2625 28.6959 53.8563 28.2147C52.8625 27.0334 51.3438 26.4209 49.8187 26.4209C48.0125 26.4147 46.2 26.4209 44.3937 26.4209C42.5875 26.4209 40.775 26.4022 38.9688 26.4209C38.9375 26.4209 38.9062 26.4209 38.875 26.4209C37.525 26.4209 36.375 27.5647 36.375 28.9209C36.375 29.6584 36.375 30.3897 36.375 31.1272C36.375 32.8897 36.375 34.6584 36.375 36.4209C36.375 38.5584 36.375 40.6897 36.375 42.8272C36.375 44.6709 36.375 46.5209 36.375 48.3647C36.375 49.2647 36.3625 50.1647 36.375 51.0647C36.375 51.0772 36.375 51.0897 36.375 51.1022C36.375 52.4522 37.5187 53.6022 38.875 53.6022C40.55 53.6022 42.2188 53.6022 43.8937 53.6022C44.1375 53.6022 44.3812 53.6022 44.625 53.6022C45.9875 53.6022 47.1125 52.4584 47.125 51.1022C47.125 50.8709 47.1437 50.6397 47.175 50.4084C47.1437 50.6272 47.1125 50.8522 47.0875 51.0709C47.15 50.6209 47.275 50.1897 47.4437 49.7772C47.3625 49.9772 47.275 50.1772 47.1937 50.3772C47.3687 49.9709 47.5938 49.5959 47.8625 49.2459C47.7313 49.4147 47.6 49.5834 47.4688 49.7522C47.725 49.4272 48.0125 49.1397 48.3375 48.8834C48.1688 49.0147 48 49.1459 47.8312 49.2772C48.1812 49.0084 48.5563 48.7834 48.9625 48.6084C48.7625 48.6897 48.5625 48.7772 48.3625 48.8584C48.7812 48.6834 49.2125 48.5647 49.6562 48.5022C49.4375 48.5334 49.2125 48.5647 48.9938 48.5897C49.4563 48.5272 49.9187 48.5272 50.3812 48.5897C50.1625 48.5584 49.9375 48.5272 49.7188 48.5022C50.1688 48.5647 50.6 48.6897 51.0125 48.8584C50.8125 48.7772 50.6125 48.6897 50.4125 48.6084C50.8187 48.7834 51.1938 49.0084 51.5438 49.2772C51.375 49.1459 51.2062 49.0147 51.0375 48.8834C51.3625 49.1397 51.65 49.4272 51.9062 49.7522C51.775 49.5834 51.6437 49.4147 51.5125 49.2459C51.7812 49.5959 52.0063 49.9709 52.1813 50.3772C52.1 50.1772 52.0125 49.9772 51.9313 49.7772C52.1063 50.1959 52.225 50.6272 52.2875 51.0709C52.2562 50.8522 52.225 50.6272 52.2 50.4084C52.2313 50.6397 52.2438 50.8709 52.25 51.1022C52.2625 52.4522 53.3875 53.6022 54.75 53.6022C55.7375 53.6022 56.7313 53.6022 57.7188 53.6022C58.375 53.6022 59.0438 53.6147 59.675 53.3959C60.4375 53.1397 61.1813 52.7147 61.7 52.0897C61.9625 51.7709 62.2125 51.4584 62.375 51.0834C62.65 50.4647 62.775 50.0084 62.8438 49.3334C62.9125 48.6334 62.8625 47.9022 62.8625 47.2022C62.8625 45.9209 62.8625 44.6397 62.8625 43.3584C62.8625 42.5272 62.8625 41.7022 62.8625 40.8709C62.8625 39.5647 61.7125 38.3084 60.3625 38.3709C59.0187 38.4334 57.8688 39.4709 57.8688 40.8709ZM17.6938 51.1022C17.6938 51.3334 17.675 51.5647 17.6438 51.7959C17.675 51.5772 17.7063 51.3522 17.7313 51.1334C17.6688 51.5834 17.5438 52.0147 17.375 52.4272C17.4563 52.2272 17.5438 52.0272 17.625 51.8272C17.45 52.2334 17.225 52.6084 16.9563 52.9584C17.0875 52.7897 17.2188 52.6209 17.35 52.4522C17.0938 52.7772 16.8063 53.0647 16.4813 53.3209C16.65 53.1897 16.8188 53.0584 16.9875 52.9272C16.6375 53.1959 16.2625 53.4209 15.8563 53.5959C16.0563 53.5147 16.2563 53.4272 16.4563 53.3459C16.0375 53.5209 15.6063 53.6397 15.1625 53.7022C15.3813 53.6709 15.6063 53.6397 15.825 53.6147C15.3625 53.6772 14.9 53.6772 14.4375 53.6147C14.6563 53.6459 14.8813 53.6772 15.1 53.7022C14.65 53.6397 14.2188 53.5147 13.8063 53.3459C14.0063 53.4272 14.2063 53.5147 14.4063 53.5959C14 53.4209 13.625 53.1959 13.275 52.9272C13.4438 53.0584 13.6125 53.1897 13.7813 53.3209C13.4563 53.0647 13.1688 52.7772 12.9125 52.4522C13.0438 52.6209 13.175 52.7897 13.3063 52.9584C13.0375 52.6084 12.8125 52.2334 12.6375 51.8272C12.7188 52.0272 12.8063 52.2272 12.8875 52.4272C12.7125 52.0084 12.5938 51.5772 12.5313 51.1334C12.5625 51.3522 12.5938 51.5772 12.6188 51.7959C12.5563 51.3334 12.5563 50.8709 12.6188 50.4084C12.5875 50.6272 12.5563 50.8522 12.5313 51.0709C12.5938 50.6209 12.7188 50.1897 12.8875 49.7772C12.8063 49.9772 12.7188 50.1772 12.6375 50.3772C12.8125 49.9709 13.0375 49.5959 13.3063 49.2459C13.175 49.4147 13.0438 49.5834 12.9125 49.7522C13.1688 49.4272 13.4563 49.1397 13.7813 48.8834C13.6125 49.0147 13.4438 49.1459 13.275 49.2772C13.625 49.0084 14 48.7834 14.4063 48.6084C14.2063 48.6897 14.0063 48.7772 13.8063 48.8584C14.225 48.6834 14.6563 48.5647 15.1 48.5022C14.8813 48.5334 14.6563 48.5647 14.4375 48.5897C14.9 48.5272 15.3625 48.5272 15.825 48.5897C15.6063 48.5584 15.3813 48.5272 15.1625 48.5022C15.6125 48.5647 16.0437 48.6897 16.4563 48.8584C16.2563 48.7772 16.0563 48.6897 15.8563 48.6084C16.2625 48.7834 16.6375 49.0084 16.9875 49.2772C16.8188 49.1459 16.65 49.0147 16.4813 48.8834C16.8063 49.1397 17.0938 49.4272 17.35 49.7522C17.2188 49.5834 17.0875 49.4147 16.9563 49.2459C17.225 49.5959 17.45 49.9709 17.625 50.3772C17.5438 50.1772 17.4563 49.9772 17.375 49.7772C17.55 50.1959 17.6688 50.6272 17.7313 51.0709C17.7 50.8522 17.6687 50.6272 17.6438 50.4084C17.6813 50.6334 17.6938 50.8647 17.6938 51.1022C17.7 51.7459 17.9688 52.4147 18.425 52.8709C18.8562 53.3022 19.5688 53.6334 20.1938 53.6022C21.5375 53.5397 22.7063 52.5022 22.6938 51.1022C22.6813 49.6209 22.2563 48.0522 21.375 46.8459C20.8125 46.0834 20.2625 45.5209 19.5125 44.9522C18.9188 44.4959 18.25 44.1959 17.55 43.9397C16.8438 43.6772 16.0563 43.5647 15.3 43.5397C14.5563 43.5147 13.775 43.6147 13.0563 43.8209C11.675 44.2147 10.3313 45.0334 9.4125 46.1459C8.8 46.8897 8.39375 47.5897 8.03125 48.4834C7.75 49.1834 7.6375 49.9147 7.56875 50.6647C7.44375 52.1334 7.8625 53.7209 8.61875 54.9772C9.35625 56.2022 10.4813 57.2897 11.7875 57.8834C12.7 58.2959 13.5125 58.5209 14.5063 58.6272C15.25 58.7084 15.9938 58.6272 16.725 58.4834C18.2563 58.1959 19.7938 57.2772 20.7938 56.0834C21.9813 54.6647 22.6625 52.9647 22.6813 51.0959C22.6938 49.7897 21.525 48.5334 20.1813 48.5959C18.8313 48.6584 17.7063 49.6959 17.6938 51.1022Z" fill="#A78364"/>
<path d="M52.2554 51.1021C52.2554 51.3333 52.2367 51.5646 52.2054 51.7958C52.2367 51.5771 52.2679 51.3521 52.2929 51.1333C52.2304 51.5833 52.1054 52.0146 51.9367 52.4271C52.0179 52.2271 52.1054 52.0271 52.1867 51.8271C52.0117 52.2333 51.7867 52.6083 51.5179 52.9583C51.6492 52.7896 51.7804 52.6208 51.9117 52.4521C51.6554 52.7771 51.3679 53.0646 51.0429 53.3208C51.2117 53.1896 51.3804 53.0583 51.5492 52.9271C51.1992 53.1958 50.8242 53.4208 50.4179 53.5958C50.6179 53.5146 50.8179 53.4271 51.0179 53.3458C50.5992 53.5208 50.1679 53.6396 49.7242 53.7021C49.9429 53.6708 50.1679 53.6396 50.3867 53.6146C49.9242 53.6771 49.4617 53.6771 48.9992 53.6146C49.2179 53.6458 49.4429 53.6771 49.6617 53.7021C49.2117 53.6396 48.7804 53.5146 48.3679 53.3458C48.5679 53.4271 48.7679 53.5146 48.9679 53.5958C48.5617 53.4208 48.1867 53.1958 47.8367 52.9271C48.0054 53.0583 48.1742 53.1896 48.3429 53.3208C48.0179 53.0646 47.7304 52.7771 47.4742 52.4521C47.6054 52.6208 47.7367 52.7896 47.8679 52.9583C47.5992 52.6083 47.3742 52.2333 47.1992 51.8271C47.2804 52.0271 47.3679 52.2271 47.4492 52.4271C47.2742 52.0083 47.1554 51.5771 47.0929 51.1333C47.1242 51.3521 47.1554 51.5771 47.1804 51.7958C47.1179 51.3333 47.1179 50.8708 47.1804 50.4083C47.1492 50.6271 47.1179 50.8521 47.0929 51.0708C47.1554 50.6208 47.2804 50.1896 47.4492 49.7771C47.3679 49.9771 47.2804 50.1771 47.1992 50.3771C47.3742 49.9708 47.5992 49.5958 47.8679 49.2458C47.7367 49.4146 47.6054 49.5833 47.4742 49.7521C47.7304 49.4271 48.0179 49.1396 48.3429 48.8833C48.1742 49.0146 48.0054 49.1458 47.8367 49.2771C48.1867 49.0083 48.5617 48.7833 48.9679 48.6083C48.7679 48.6896 48.5679 48.7771 48.3679 48.8583C48.7867 48.6833 49.2179 48.5646 49.6617 48.5021C49.4429 48.5333 49.2179 48.5646 48.9992 48.5896C49.4617 48.5271 49.9242 48.5271 50.3867 48.5896C50.1679 48.5583 49.9429 48.5271 49.7242 48.5021C50.1742 48.5646 50.6054 48.6896 51.0179 48.8583C50.8179 48.7771 50.6179 48.6896 50.4179 48.6083C50.8242 48.7833 51.1992 49.0083 51.5492 49.2771C51.3804 49.1458 51.2117 49.0146 51.0429 48.8833C51.3679 49.1396 51.6554 49.4271 51.9117 49.7521C51.7804 49.5833 51.6492 49.4146 51.5179 49.2458C51.7867 49.5958 52.0117 49.9708 52.1867 50.3771C52.1054 50.1771 52.0179 49.9771 51.9367 49.7771C52.1117 50.1958 52.2304 50.6271 52.2929 51.0708C52.2617 50.8521 52.2304 50.6271 52.2054 50.4083C52.2367 50.6333 52.2554 50.8646 52.2554 51.1021C52.2617 51.7458 52.5304 52.4146 52.9867 52.8708C53.4179 53.3021 54.1304 53.6333 54.7554 53.6021C56.0992 53.5396 57.2679 52.5021 57.2554 51.1021C57.2429 49.6208 56.8179 48.0521 55.9367 46.8458C55.3742 46.0833 54.8242 45.5208 54.0742 44.9521C53.4804 44.4958 52.8117 44.1958 52.1117 43.9396C51.4054 43.6771 50.6179 43.5646 49.8617 43.5396C49.1179 43.5146 48.3367 43.6146 47.6179 43.8208C46.2367 44.2146 44.8929 45.0333 43.9742 46.1458C43.3617 46.8896 42.9554 47.5896 42.5929 48.4833C42.3117 49.1833 42.1992 49.9146 42.1304 50.6646C42.0054 52.1333 42.4242 53.7208 43.1804 54.9771C43.9179 56.2021 45.0429 57.2896 46.3492 57.8833C47.2617 58.2958 48.0742 58.5208 49.0679 58.6271C49.8117 58.7083 50.5554 58.6271 51.2867 58.4833C52.8179 58.1958 54.3554 57.2771 55.3554 56.0833C56.5429 54.6646 57.2242 52.9646 57.2429 51.0958C57.2554 49.7896 56.0867 48.5333 54.7429 48.5958C53.3929 48.6583 52.2679 49.6958 52.2554 51.1021ZM30.9367 20.8396C30.9367 21.4021 30.8992 21.9646 30.8242 22.5208C30.8554 22.3021 30.8867 22.0771 30.9117 21.8583C30.7679 22.9146 30.4867 23.9521 30.0742 24.9333C30.1554 24.7333 30.2429 24.5333 30.3242 24.3333C29.9179 25.2958 29.3867 26.1958 28.7554 27.0271C28.8867 26.8583 29.0179 26.6896 29.1492 26.5208C28.4992 27.3646 27.7429 28.1146 26.8992 28.7708C27.0679 28.6396 27.2367 28.5083 27.4054 28.3771C26.5742 29.0083 25.6742 29.5396 24.7117 29.9458C24.9117 29.8646 25.1117 29.7771 25.3117 29.6958C24.3242 30.1083 23.2929 30.3896 22.2367 30.5333C22.4554 30.5021 22.6804 30.4708 22.8992 30.4458C21.8054 30.5896 20.6992 30.5896 19.6054 30.4458C19.8242 30.4771 20.0492 30.5083 20.2679 30.5333C19.2117 30.3896 18.1742 30.1083 17.1929 29.6958C17.3929 29.7771 17.5929 29.8646 17.7929 29.9458C16.8304 29.5396 15.9304 29.0083 15.0992 28.3771C15.2679 28.5083 15.4367 28.6396 15.6054 28.7708C14.7617 28.1208 14.0117 27.3646 13.3554 26.5208C13.4867 26.6896 13.6179 26.8583 13.7492 27.0271C13.1179 26.1958 12.5867 25.2958 12.1804 24.3333C12.2617 24.5333 12.3492 24.7333 12.4304 24.9333C12.0179 23.9458 11.7367 22.9146 11.5929 21.8583C11.6242 22.0771 11.6554 22.3021 11.6804 22.5208C11.5367 21.4396 11.5367 20.3521 11.6742 19.2771C11.6429 19.4958 11.6117 19.7208 11.5867 19.9396C11.7367 18.8458 12.0242 17.7896 12.4492 16.7708C12.3679 16.9708 12.2804 17.1708 12.1992 17.3708C12.6117 16.4083 13.1429 15.5021 13.7804 14.6771C13.6492 14.8458 13.5179 15.0146 13.3867 15.1833C14.0242 14.3646 14.7617 13.6271 15.5867 12.9896C15.4179 13.1208 15.2492 13.2521 15.0804 13.3833C15.9117 12.7458 16.8179 12.2146 17.7804 11.8083C17.5804 11.8896 17.3804 11.9771 17.1804 12.0583C18.1679 11.6458 19.2054 11.3646 20.2679 11.2146C20.0492 11.2458 19.8242 11.2771 19.6054 11.3021C20.7054 11.1583 21.8117 11.1583 22.9054 11.3021C22.6867 11.2708 22.4617 11.2396 22.2429 11.2146C23.3054 11.3646 24.3367 11.6458 25.3304 12.0583C25.1304 11.9771 24.9304 11.8896 24.7304 11.8083C25.6929 12.2208 26.5992 12.7458 27.4304 13.3833C27.2617 13.2521 27.0929 13.1208 26.9242 12.9896C27.7492 13.6271 28.4804 14.3646 29.1242 15.1833C28.9929 15.0146 28.8617 14.8458 28.7304 14.6771C29.3679 15.5083 29.8992 16.4083 30.3117 17.3708C30.2304 17.1708 30.1429 16.9708 30.0617 16.7708C30.4867 17.7833 30.7804 18.8458 30.9242 19.9396C30.8929 19.7208 30.8617 19.4958 30.8367 19.2771C30.8992 19.7958 30.9304 20.3146 30.9367 20.8396C30.9429 21.4833 31.2117 22.1521 31.6679 22.6083C32.0992 23.0396 32.8117 23.3708 33.4367 23.3396C34.7867 23.2771 35.9429 22.2396 35.9367 20.8396C35.9179 17.8896 35.0242 14.8771 33.2929 12.4771C32.8179 11.8208 32.3117 11.1771 31.7429 10.5896C31.1742 10.0021 30.5367 9.49583 29.8867 9.00833C28.7179 8.12708 27.4054 7.47708 26.0304 6.98958C20.4242 4.97708 13.6679 6.85208 9.94918 11.5146C9.43668 12.1521 8.94918 12.8021 8.53668 13.5146C8.12418 14.2271 7.79293 14.9833 7.49293 15.7521C6.94293 17.1458 6.67418 18.6458 6.58668 20.1396C6.41168 23.0458 7.19293 26.0708 8.72418 28.5458C10.2304 30.9771 12.4804 33.0521 15.1117 34.2083C15.8742 34.5396 16.6367 34.8521 17.4429 35.0646C18.2617 35.2833 19.1054 35.4021 19.9492 35.4958C21.4617 35.6583 23.0054 35.5208 24.4867 35.2021C30.1804 33.9771 34.8867 29.0521 35.7304 23.2708C35.8492 22.4646 35.9429 21.6583 35.9429 20.8396C35.9429 19.5333 34.7929 18.2771 33.4429 18.3396C32.0804 18.4021 30.9367 19.4396 30.9367 20.8396Z" fill="#A78364"/>
<path d="M18.7559 16.1331C18.7559 17.5956 18.7559 19.0643 18.7559 20.5268C18.7559 21.3143 18.9121 22.0393 19.4934 22.6518C19.6184 22.7768 19.7434 22.9018 19.8684 23.0268C20.5059 23.6581 21.1371 24.2956 21.7746 24.9268C22.2434 25.3956 22.7121 25.8643 23.1871 26.3331C24.1121 27.2581 25.8121 27.3268 26.7246 26.3331C27.6434 25.3331 27.7121 23.7831 26.7246 22.7956C25.4934 21.5643 24.2621 20.3331 23.0309 19.1081C23.2746 19.6956 23.5184 20.2893 23.7621 20.8768C23.7621 19.2956 23.7621 17.7143 23.7621 16.1331C23.7621 14.8268 22.6121 13.5706 21.2621 13.6331C19.8996 13.6893 18.7559 14.7268 18.7559 16.1331Z" fill="#A78364"/>
</svg>
