<svg width="22" height="23" viewBox="0 0 22 23" fill="none" xmlns="http://www.w3.org/2000/svg">
<path d="M14.1525 9.40962L13.376 4.40473C13.3653 4.33739 13.3822 4.26869 13.4223 4.21366C13.4625 4.15868 13.5231 4.12193 13.5905 4.11149C13.8747 4.06753 14.0887 3.8172 14.0887 3.52922C14.0887 3.41421 14.0553 3.3032 13.9928 3.20812C13.9532 3.14787 13.9406 3.07382 13.9585 3.00394C13.9759 2.93401 14.0218 2.87477 14.0856 2.8406C14.8243 2.44255 15.6137 2.24083 16.4331 2.24083C17.2654 2.24074 18.0655 2.44826 18.8104 2.85737C18.8725 2.89136 18.9175 2.94948 18.9353 3.01789C18.9532 3.08625 18.942 3.15903 18.9045 3.21895C18.8466 3.31115 18.8162 3.41831 18.8162 3.52872C18.8163 3.81816 19.0316 4.06867 19.318 4.11127C19.3854 4.12134 19.4465 4.15801 19.487 4.21312C19.5277 4.26815 19.5446 4.33722 19.5339 4.40482L18.7565 9.40956H19.7102L21.2484 1.89099C21.265 1.809 21.2226 1.72675 21.1467 1.69525C19.7333 1.1057 18.0981 0.794189 16.4188 0.794189C14.769 0.794189 13.1579 1.09564 11.7596 1.66591C11.6833 1.69701 11.64 1.77949 11.657 1.86206L12.8894 7.88654C12.8899 7.88896 12.8903 7.89137 12.8907 7.89379L13.2007 9.40962L14.1525 9.40962Z" fill="#E5E5E5"/>
<path d="M16.4556 4.87672C16.4488 4.87672 16.4422 4.87646 16.4356 4.87595C15.9995 4.88675 15.6478 5.24509 15.6478 5.68395C15.6478 6.12959 16.0104 6.49217 16.456 6.49217C17.1849 6.49208 17.778 7.08522 17.778 7.81417C17.7781 8.45534 17.319 8.99139 16.7125 9.11114V9.40959H18.2372L18.9922 4.55056C18.5858 4.38446 18.303 3.98219 18.303 3.52871C18.303 3.41591 18.3199 3.30486 18.3529 3.19893C17.7455 2.9039 17.1009 2.75464 16.4337 2.75464C15.7803 2.75457 15.1469 2.89855 14.5474 3.18278C14.584 3.29358 14.6032 3.41037 14.6032 3.52922C14.6032 3.98856 14.3271 4.38516 13.9189 4.5506L14.673 9.40959H16.1986V9.11094C15.5925 8.9908 15.1339 8.45503 15.1339 7.81416C15.134 7.67226 15.249 7.55724 15.3908 7.55724C15.5328 7.55716 15.6478 7.67226 15.6478 7.81416C15.6478 8.25962 16.0102 8.62214 16.4555 8.62237C16.9012 8.62236 17.2642 8.25979 17.2642 7.81416C17.2642 7.36849 16.9016 7.00594 16.456 7.00594C15.7272 7.0059 15.1339 6.4129 15.1339 5.68394C15.134 5.04297 15.5925 4.50722 16.1986 4.38713L16.1986 3.94671C16.1986 3.8048 16.3137 3.68987 16.4555 3.68987C16.5974 3.6898 16.7124 3.80488 16.7124 3.94678L16.7125 4.38696C17.3191 4.50671 17.778 5.04271 17.778 5.68394C17.7781 5.82579 17.6629 5.94086 17.5211 5.94086C17.3793 5.94081 17.2642 5.82584 17.2642 5.68394C17.2642 5.24478 16.9122 4.88643 16.4756 4.87593C16.469 4.87645 16.4623 4.87672 16.4556 4.87672Z" fill="#E5E5E5"/>
<path d="M4.38718 11.9197V11.9153V11.7553C4.38718 11.672 4.31936 11.6043 4.23641 11.6043L2.94434 11.6042V21.4637H4.23645C4.27658 21.4637 4.31446 21.4481 4.34299 21.4196C4.37162 21.3911 4.38715 21.3532 4.38715 21.3129V21.1508L4.38718 11.9197Z" fill="#E5E5E5"/>
<path d="M0.654299 22.2047H2.27878C2.36217 22.2047 2.42992 22.137 2.42992 22.0537V21.7209L2.42996 16.5334L2.43001 11.0145C2.43001 10.9313 2.36213 10.8635 2.27871 10.8635H0.654297L0.654299 22.2047ZM1.54236 21.5783C1.47452 21.5783 1.40806 21.5511 1.36035 21.5034C1.34878 21.4913 1.33803 21.4784 1.32865 21.4641C1.31936 21.4502 1.31128 21.4351 1.30503 21.42C1.29839 21.4042 1.29343 21.3883 1.29031 21.3718C1.28674 21.3553 1.2854 21.3383 1.2854 21.3214C1.28544 21.254 1.31262 21.1876 1.36035 21.1398C1.42011 21.08 1.50886 21.0529 1.59227 21.0698C1.60879 21.0729 1.62484 21.0778 1.64045 21.0841C1.65606 21.0907 1.67077 21.0988 1.68461 21.1077C1.69891 21.117 1.71182 21.1282 1.72385 21.1398C1.73545 21.1519 1.74616 21.1648 1.75553 21.1791C1.76496 21.1929 1.77292 21.2076 1.77917 21.2233C1.78593 21.2388 1.79076 21.2549 1.79388 21.2714C1.79747 21.2878 1.79923 21.3049 1.79923 21.3214C1.79927 21.3383 1.79744 21.3553 1.79388 21.3718C1.79085 21.3882 1.78586 21.4043 1.77917 21.42C1.77299 21.4351 1.7649 21.4503 1.75553 21.4641C1.74619 21.4783 1.73545 21.4913 1.72385 21.5034C1.71187 21.5149 1.69888 21.5257 1.68461 21.535C1.67081 21.5443 1.65605 21.5524 1.64045 21.5587C1.62485 21.5653 1.60878 21.5703 1.59227 21.5734C1.57577 21.5769 1.55883 21.5783 1.54236 21.5783Z" fill="#E5E5E5"/>
<path d="M5.69433 12.1744H4.90039L4.90041 20.8939L6.35628 20.8938C6.64882 20.8938 6.93653 20.9436 7.21172 21.0419L8.85628 21.6292C9.07888 21.7084 9.31075 21.7467 9.54447 21.7474L18.1244 21.7244C18.8305 21.7222 19.4049 21.1463 19.4049 20.4405C19.4049 19.7325 18.8291 19.1566 18.1212 19.1566C18.1158 19.1566 18.1105 19.1564 18.1052 19.1561H16.983C16.8411 19.1561 16.726 19.0411 16.726 18.8992C16.7261 18.7573 16.8411 18.6423 16.9829 18.6423L18.8068 18.6422C19.5138 18.6422 20.0886 18.0672 20.0886 17.3604C20.0886 16.6535 19.5137 16.0785 18.8068 16.0785L18.8023 16.0784H16.342C16.2002 16.0784 16.0851 15.9635 16.0851 15.8216C16.0851 15.6796 16.2001 15.5647 16.342 15.5647H18.8068H19.2631C19.97 15.5647 20.5449 14.9896 20.5449 14.2828C20.545 13.5759 19.97 13.0009 19.263 13.0009L15.1118 13.0009C14.97 13.0009 14.8549 12.8859 14.8549 12.744C14.8549 12.602 14.97 12.4871 15.1118 12.4871L20.0035 12.487C20.3452 12.487 20.6671 12.3537 20.9098 12.1114C21.152 11.8698 21.2854 11.548 21.2854 11.2052C21.2854 10.4984 20.7104 9.92336 20.0035 9.92336H19.9248L19.9205 9.92341L19.9157 9.92336L12.991 9.92332C12.8629 9.92332 12.7565 9.82948 12.7372 9.70673L12.4648 8.37476C10.267 9.91092 7.90403 11.2961 6.95928 11.8375C6.57437 12.0579 6.13724 12.1745 5.69433 12.1744Z" fill="#E5E5E5"/>
</svg>
