<svg width="45" height="20" viewBox="0 0 45 20" fill="none" xmlns="http://www.w3.org/2000/svg">
<path d="M8.50457 2.46178C9.03436 1.79912 9.39381 0.909435 9.29907 0.000244141C8.52356 0.0388265 7.57719 0.511921 7.0293 1.17503C6.53731 1.74295 6.10192 2.6699 6.21547 3.54095C7.0859 3.61644 7.95572 3.10582 8.50457 2.46178Z" fill="#E5E5E5"/>
<path d="M9.28908 3.7111C8.02482 3.63578 6.94988 4.42861 6.34609 4.42861C5.74204 4.42861 4.81747 3.74907 3.81749 3.76735C2.51598 3.78651 1.30832 4.52238 0.64785 5.69278C-0.71062 8.03417 0.289359 11.5073 1.61039 13.4142C2.25188 14.3576 3.02511 15.3964 4.0438 15.359C5.00634 15.3212 5.38364 14.7357 6.55359 14.7357C7.72275 14.7357 8.06261 15.359 9.08149 15.3401C10.1382 15.3212 10.7987 14.3962 11.4402 13.4519C12.1762 12.3764 12.4774 11.338 12.4963 11.281C12.4774 11.2621 10.4589 10.4877 10.4401 8.16583C10.4211 6.22168 12.0249 5.29684 12.1004 5.23954C11.1948 3.90014 9.77966 3.74907 9.28908 3.7111Z" fill="#E5E5E5"/>
<path d="M20.2977 1.07495C23.0456 1.07495 24.959 2.96909 24.959 5.72681C24.959 8.49437 23.0061 10.3984 20.2288 10.3984H17.1864V15.2366H14.9883V1.07495H20.2977ZM17.1863 8.55326H19.7085C21.6223 8.55326 22.7115 7.52287 22.7115 5.73665C22.7115 3.95061 21.6223 2.92989 19.7184 2.92989H17.1863V8.55326Z" fill="#E5E5E5"/>
<path d="M25.5332 12.3016C25.5332 10.4957 26.917 9.38671 29.3707 9.24934L32.197 9.08254V8.28768C32.197 7.13944 31.4216 6.45243 30.1264 6.45243C28.8994 6.45243 28.1339 7.04118 27.9476 7.96382H25.9456C26.0633 6.09904 27.653 4.7251 30.2048 4.7251C32.7073 4.7251 34.307 6.04999 34.307 8.1207V15.2359H32.2754V13.5381H32.2265C31.6279 14.6864 30.3225 15.4125 28.9683 15.4125C26.9465 15.4125 25.5332 14.1563 25.5332 12.3016ZM32.1969 11.3693V10.5547L29.655 10.7117C28.389 10.8001 27.6726 11.3595 27.6726 12.2428C27.6726 13.1456 28.4184 13.7345 29.5569 13.7345C31.0388 13.7343 32.1969 12.7137 32.1969 11.3693Z" fill="#E5E5E5"/>
<path d="M36.2248 19.0353V17.3178C36.3816 17.357 36.7348 17.357 36.9116 17.357C37.8929 17.357 38.423 16.9449 38.7466 15.885C38.7466 15.8653 38.9333 15.2569 38.9333 15.247L35.2041 4.91284H37.5003L40.1112 13.3137H40.1502L42.7611 4.91284H44.9984L41.1314 15.7769C40.2485 18.2797 39.2277 19.0844 37.0883 19.0844C36.9116 19.0844 36.3815 19.0647 36.2248 19.0353Z" fill="#E5E5E5"/>
</svg>
