<svg width="64" height="65" viewBox="0 0 64 65" fill="none" xmlns="http://www.w3.org/2000/svg">
<path d="M31.9992 40.0829C28.3055 40.0829 24.8305 38.6454 22.218 36.0329C19.6055 33.4204 18.168 29.9454 18.168 26.2517C18.168 22.5579 19.6055 19.0829 22.218 16.4704C24.8305 13.8579 28.3055 12.4204 31.9992 12.4204C35.693 12.4204 39.168 13.8579 41.7805 16.4704C44.393 19.0829 45.8305 22.5579 45.8305 26.2517C45.8305 29.9454 44.393 33.4204 41.7805 36.0329C39.168 38.6454 35.693 40.0829 31.9992 40.0829ZM31.9992 15.5454C26.093 15.5454 21.293 20.3517 21.293 26.2517C21.293 32.1579 26.0992 36.9579 31.9992 36.9579C37.8992 36.9579 42.7055 32.1517 42.7055 26.2517C42.7055 20.3454 37.9055 15.5454 31.9992 15.5454Z" fill="#A78364"/>
<path d="M30.0504 32.4022L24.9629 27.3147L27.1754 25.1085L30.0504 27.9835L36.8254 21.2085L39.0379 23.4147L30.0504 32.4022Z" fill="#A78364"/>
<path d="M31.9992 49.7463C31.0055 49.7463 30.0055 49.5025 29.0992 49.0213C28.9117 48.9213 28.7305 48.8088 28.5555 48.6963C28.2305 48.4775 27.9242 48.2275 27.6492 47.9463L25.2617 45.5525C24.6867 44.9775 23.9305 44.665 23.118 44.665H19.743C16.3492 44.665 13.5867 41.9025 13.5867 38.5088V35.1338C13.5867 34.3338 13.2617 33.5588 12.6992 32.99L10.3117 30.6025C7.91172 28.2025 7.91172 24.2963 10.3117 21.8963L12.6992 19.5088C13.2617 18.9463 13.5867 18.165 13.5867 17.365V13.99C13.5867 10.5963 16.3492 7.83379 19.743 7.83379H23.118C23.9242 7.83379 24.6867 7.52129 25.2617 6.94629L27.6492 4.55879C30.0492 2.15879 33.9555 2.15879 36.3492 4.55879L38.7367 6.94629C39.3117 7.52129 40.068 7.83379 40.8805 7.83379H44.2555C47.6492 7.83379 50.4117 10.5963 50.4117 13.99V17.365C50.4117 18.1713 50.7242 18.9338 51.2992 19.5088L53.6867 21.8963C56.0867 24.2963 56.0867 28.2025 53.6867 30.6025L51.2992 32.99C50.7242 33.5588 50.4117 34.3213 50.4117 35.1338V38.5088C50.4117 41.9025 47.6492 44.665 44.2555 44.665H40.8805C40.068 44.665 39.3117 44.9775 38.7367 45.5525L36.3492 47.94C36.068 48.2213 35.7617 48.4713 35.4367 48.69C35.268 48.8025 35.0805 48.915 34.893 49.015C33.993 49.5025 32.993 49.7463 31.9992 49.7463ZM19.7367 10.965C18.068 10.965 16.7055 12.3213 16.7055 13.9963V17.3713C16.7055 19.015 16.068 20.5588 14.9055 21.7213L12.518 24.1088C11.3367 25.29 11.3367 27.2088 12.518 28.39L14.9055 30.7775C16.068 31.94 16.7055 33.4838 16.7055 35.1275V38.5025C16.7055 40.1713 18.0617 41.5338 19.7367 41.5338H23.1117C24.7555 41.5338 26.2992 42.1713 27.4617 43.3338L29.8492 45.7213C29.9867 45.8588 30.1367 45.9838 30.2992 46.0963C30.3867 46.1525 30.468 46.2088 30.5617 46.2525C31.4555 46.7338 32.5242 46.7338 33.418 46.2525C33.5117 46.2025 33.5992 46.1525 33.6805 46.0963C33.843 45.9838 33.9992 45.8588 34.1367 45.7213L36.5242 43.3338C37.6867 42.1713 39.2305 41.5338 40.8742 41.5338H44.2492C45.918 41.5338 47.2805 40.1775 47.2805 38.5025V35.1275C47.2805 33.4838 47.918 31.94 49.0805 30.7775L51.468 28.39C52.6492 27.2088 52.6492 25.29 51.468 24.1025L49.0805 21.715C47.918 20.5525 47.2805 19.0088 47.2805 17.365V13.99C47.2805 12.3213 45.9242 10.9588 44.2492 10.9588H40.8742C39.2305 10.9588 37.6867 10.3213 36.5242 9.15254L34.1367 6.76504C33.5617 6.19004 32.8055 5.87754 31.993 5.87754C31.1867 5.87754 30.4242 6.19004 29.8492 6.76504L27.4617 9.15254C26.2992 10.315 24.7555 10.9525 23.1117 10.9525H19.7367V10.965Z" fill="#A78364"/>
<path d="M25.425 62.1088L20.6563 56.2463L13.1875 57.3775L19.3125 41.54H23.1188C24.7625 41.54 26.3063 42.1775 27.4688 43.34L29.8563 45.7275C29.9938 45.865 30.1438 45.99 30.3063 46.1025L31.3375 46.7963L25.425 62.1088ZM21.9563 52.89L24.45 55.9588L27.575 47.8713L25.2625 45.5525C24.6875 44.9775 23.9313 44.665 23.1188 44.665H21.4563L18.05 53.4775L21.9563 52.89ZM38.575 62.1025L32.6563 46.8025L33.6875 46.1088C33.85 46.0025 34 45.8775 34.1375 45.7338L36.525 43.3463C37.6875 42.1838 39.2313 41.5463 40.875 41.5463H44.6875L50.8063 57.3838L43.3375 56.2525L38.575 62.1025ZM36.425 47.8713L39.55 55.9588L42.0438 52.89L45.95 53.4838L42.5438 44.6713H40.8813C40.0688 44.6713 39.3125 44.9838 38.7375 45.5588L36.425 47.8713Z" fill="#A78364"/>
</svg>
