<svg width="47" height="15" viewBox="0 0 47 15" fill="none" xmlns="http://www.w3.org/2000/svg">
<path d="M17.1318 13.7923L19.5051 0.442627H23.2134L20.9143 13.7923H17.1318Z" fill="#E5E5E5"/>
<path d="M17.1318 13.7923L20.1726 0.442627H23.2134L20.9143 13.7923H17.1318Z" fill="#E5E5E5"/>
<path d="M34.3385 0.59332C33.5968 0.29666 32.4102 0 30.9269 0C27.2186 0 24.5487 1.85412 24.5487 4.52407C24.5487 6.52652 26.4028 7.56483 27.8861 8.23232C29.3694 8.8998 29.8144 9.34479 29.8144 9.93811C29.8144 10.8281 28.6278 11.2731 27.5894 11.2731C26.1061 11.2731 25.2903 11.0506 24.0295 10.5314L23.5104 10.3089L22.9912 13.3497C23.8812 13.7205 25.5128 14.0914 27.2186 14.0914C31.1494 14.0914 33.7451 12.2372 33.7451 9.41896C33.7451 7.86149 32.781 6.67485 30.556 5.71071C29.2211 5.04322 28.4053 4.6724 28.4053 4.00491C28.4053 3.41159 29.0727 2.81827 30.556 2.81827C31.8168 2.81827 32.7068 3.04077 33.3743 3.33743L33.7451 3.48576L34.3385 0.59332Z" fill="#F7F7F7"/>
<path d="M34.3385 0.59332C33.5968 0.29666 32.4102 0 30.9269 0C27.2186 0 25.2162 1.85412 25.2162 4.52407C25.2162 6.52652 26.4028 7.56483 27.8861 8.23232C29.3694 8.8998 29.8144 9.34479 29.8144 9.93811C29.8144 10.8281 28.6278 11.2731 27.5894 11.2731C26.1061 11.2731 25.2903 11.0506 24.0295 10.5314L23.5104 10.3089L22.9912 13.3497C23.8812 13.7205 25.5128 14.0914 27.2186 14.0914C31.1494 14.0914 33.7451 12.2372 33.7451 9.41896C33.7451 7.86149 32.781 6.67485 30.556 5.71071C29.2211 5.04322 28.4053 4.6724 28.4053 4.00491C28.4053 3.41159 29.0727 2.81827 30.556 2.81827C31.8168 2.81827 32.7068 3.04077 33.3743 3.33743L33.7451 3.48576L34.3385 0.59332Z" fill="#E5E5E5"/>
<path d="M40.7163 0.442627C39.8263 0.442627 39.1588 0.516793 38.788 1.40677L33.2256 13.7923H37.2305L37.9721 11.5674H42.7187L43.1637 13.7923H46.7236L43.6087 0.442627H40.7163ZM39.0105 9.34243C39.233 8.67494 40.4938 5.41168 40.4938 5.41168C40.4938 5.41168 40.7904 4.59587 41.0129 4.07671L41.2354 5.33752C41.2354 5.33752 41.9771 8.67495 42.1254 9.4166H39.0105V9.34243Z" fill="#F7F7F7"/>
<path d="M41.6062 0.442627C40.7163 0.442627 40.0488 0.516793 39.6779 1.40677L33.2256 13.7923H37.2305L37.9721 11.5674H42.7187L43.1637 13.7923H46.7236L43.6087 0.442627H41.6062ZM39.0105 9.34243C39.3071 8.60078 40.4938 5.41168 40.4938 5.41168C40.4938 5.41168 40.7904 4.59587 41.0129 4.07671L41.2354 5.33752C41.2354 5.33752 41.9771 8.67495 42.1254 9.4166H39.0105V9.34243Z" fill="#E5E5E5"/>
<path d="M10.3085 9.78967L9.93764 7.86138C9.27016 5.63643 7.11937 3.18898 4.74609 2.00234L8.08352 13.8687H12.0884L18.0958 0.519043H14.0909L10.3085 9.78967Z" fill="#F7F7F7"/>
<path d="M10.3085 9.78967L9.93764 7.86138C9.27016 5.63643 7.11937 3.18898 4.74609 2.00234L8.08352 13.8687H12.0884L18.0958 0.519043H14.8325L10.3085 9.78967Z" fill="#E5E5E5"/>
<path d="M0 0.442627L0.667485 0.590958C5.41405 1.70343 8.67731 4.5217 9.93811 7.85913L8.60314 1.5551C8.38065 0.665122 7.71316 0.442627 6.89735 0.442627H0Z" fill="#E5E5E5"/>
<path d="M0 0.442627C4.74656 1.5551 8.67731 4.44754 9.93811 7.78497L8.67731 2.51925C8.45481 1.62927 7.71316 1.11011 6.89735 1.11011L0 0.442627Z" fill="#E5E5E5"/>
<path d="M0 0.442627C4.74656 1.5551 8.67731 4.44754 9.93811 7.78497L9.04813 4.89253C8.82564 4.00255 8.52898 3.11257 7.49067 2.74174L0 0.442627Z" fill="#E5E5E5"/>
<path d="M14.0168 9.34473L11.4952 6.82312L10.3085 9.64139L10.0119 7.78726C9.34438 5.56231 7.19359 3.11486 4.82031 1.92822L8.15774 13.7946H12.1626L14.0168 9.34473Z" fill="#E5E5E5"/>
<path d="M20.9143 13.7945L17.7252 10.5312L17.1318 13.7945H20.9143Z" fill="#E5E5E5"/>
<path d="M29.4436 9.19629C29.7402 9.49295 29.8886 9.71545 29.8144 10.0121C29.8144 10.9021 28.6278 11.3471 27.5894 11.3471C26.1061 11.3471 25.2903 11.1246 24.0295 10.6054L23.5104 10.3829L22.9912 13.4237C23.8812 13.7945 25.5128 14.1653 27.2186 14.1653C29.5919 14.1653 31.5202 13.4979 32.6327 12.3112L29.4436 9.19629Z" fill="#E5E5E5"/>
<path d="M33.7451 13.7945H37.2309L37.9725 11.5695H42.7191L43.1641 13.7945H46.724L45.4632 8.38043L41.0133 4.07886L41.2358 5.2655C41.2358 5.2655 41.9774 8.60292 42.1258 9.34457H39.0108C39.3075 8.60292 40.4941 5.41383 40.4941 5.41383C40.4941 5.41383 40.7908 4.59801 41.0133 4.07886" fill="#E5E5E5"/>
</svg>
